HIERARCHY
ROOT Hips
{
  OFFSET 0 0 0
  CHANNELS 6 Xposition Yposition Zposition Zrotation Yrotation Xrotation
  JOINT LeftThigh
  {
    OFFSET 8.409438 0 -5.917753
    CHANNELS 3 Zrotation Yrotation Xrotation
    JOINT LeftLeg
    {
      OFFSET 0 0 -42.358652
      CHANNELS 3 Zrotation Yrotation Xrotation
      JOINT LeftFoot
      {
        OFFSET 0 0 -39.357303
        CHANNELS 3 Zrotation Yrotation Xrotation
      }
    }
  }
  JOINT RightThigh
  {
    OFFSET -8.409438 0 -5.917753
    CHANNELS 3 Zrotation Yrotation Xrotation
    JOINT RightLeg
    {
      OFFSET 0 0 -42.358652
      CHANNELS 3 Zrotation Yrotation Xrotation
      JOINT RightFoot
      {
        OFFSET 0 0 -39.357303
        CHANNELS 3 Zrotation Yrotation Xrotation
      }
    }
  }
  JOINT SpineLow
  {
    OFFSET 0 0 4.719101
    CHANNELS 3 Zrotation Yrotation Xrotation
    JOINT SpineMid
    {
      OFFSET 0 0 12.899191
      CHANNELS 3 Zrotation Yrotation Xrotation
      JOINT Chest
      {
        OFFSET 0 0 12.899191
        CHANNELS 3 Zrotation Yrotation Xrotation
        JOINT LeftShoulder
        {
          OFFSET 7.550562 1.41573 9.438202
          CHANNELS 3 Zrotation Yrotation Xrotation
          JOINT LeftArm
          {
            OFFSET 9.155056 0 4.247191
            CHANNELS 3 Zrotation Yrotation Xrotation
            JOINT LeftForearm
            {
              OFFSET 0 0 25.771955
              CHANNELS 3 Zrotation Yrotation Xrotation
              JOINT LeftHand
              {
                OFFSET 0 0 25.197169
                CHANNELS 3 Zrotation Yrotation Xrotation
              }
            }
          }
        }
        JOINT RightShoulder
        {
          OFFSET -7.550562 1.41573 9.438202
          CHANNELS 3 Zrotation Yrotation Xrotation
          JOINT RightArm
          {
            OFFSET -9.155056 0 4.247191
            CHANNELS 3 Zrotation Yrotation Xrotation
            JOINT RightForearm
            {
              OFFSET 0 0 -25.771955
              CHANNELS 3 Zrotation Yrotation Xrotation
              JOINT RightHand
              {
                OFFSET 0 0 -25.197169
                CHANNELS 3 Zrotation Yrotation Xrotation
              }
            }
          }
        }
        JOINT Neck
        {
          OFFSET 0 0 15.101124
          CHANNELS 3 Zrotation Yrotation Xrotation
          JOINT Head
          {
            OFFSET 0 0 11.325843
            CHANNELS 3 Zrotation Yrotation Xrotation
            End Site
            {
              OFFSET 0 0 14.157303
            }
          }
        }
      }
    }
  }
}
MOTION
Frames: 10
Frame Time: 0.0
0.0  93.25843  0.0  81.801967  -46.709638  -156.360562  42.835256  -44.297501  -40.125411  -16.003795  1.995963  4.535606  4.443051  -0.734676  4.19622  -10.430982  27.16928  -41.076991  8.107811  14.602241  24.51515  1.719303  2.818848  1.055725  2.233977  2.763916  1.883982  6.342427  7.367404  5.421498  6.342427  7.367405  5.421498  -7.618347  27.73865  13.460066  178.168182  50.464988  -154.116002  -29.608663  -5.715578  104.398457  80.010688  -22.366026  -6.781207  18.256651  -9.081011  25.14946  179.328173  64.292989  118.614328  7.031807  -40.098256  -134.536657  57.823275  4.720862  -7.787396  13.012162  18.527446  21.264349  9.01953  14.370038  15.407444  
0.0  93.25843  0.0  81.463398  -47.11813  -156.311358  42.346491  -46.159125  -40.999485  -16.619345  4.072777  8.96844  4.783873  -0.26372  4.355137  -9.111926  27.896387  -40.538655  7.198656  14.055121  25.224241  1.715905  2.68331  1.252632  2.245711  2.638506  1.945478  6.368886  7.018224  5.577573  6.368887  7.018225  5.577574  -7.938069  27.49287  12.714029  176.85239  50.576537  -155.130255  -30.105962  -5.693395  104.382298  79.884129  -22.729005  -6.470351  17.895145  -8.945636  25.151522  179.503953  64.034588  118.031926  6.428209  -40.906254  -133.978753  57.387548  4.818752  -7.345038  12.713946  18.563896  21.218371  8.797182  14.385764  15.380792  
0.0  93.25843  0.0  81.128767  -47.426515  -156.077035  39.821212  -47.991104  -40.944527  -15.44504  5.913396  14.331854  4.990717  0.22125  4.355482  -9.412173  27.970767  -40.795178  7.38467  13.149035  25.758183  1.551743  2.509807  1.258514  1.998685  2.474906  1.923733  5.674013  6.595151  5.476057  5.674013  6.595151  5.476057  -7.270849  28.189066  12.056809  177.090299  50.994608  -155.242087  -30.263625  -5.729083  104.406845  79.946048  -22.932659  -6.343879  18.87767  -8.469879  25.229228  179.471354  63.372125  116.99993  5.558105  -41.788214  -133.319163  56.98811  4.917613  -6.878283  13.310168  19.060962  21.223226  9.216827  14.780156  15.346596  
0.0  93.25843  0.0  83.329506  -47.129964  -158.819681  35.80158  -50.419306  -38.328182  -12.680951  8.555292  20.550568  5.348144  0.619035  4.416812  -9.327403  28.08516  -40.565577  8.858479  12.869117  26.127064  0.594375  1.702032  1.341326  2.038428  2.542145  2.050841  5.802112  6.763805  5.834868  5.802111  6.763805  5.834868  -7.378983  28.686223  11.689992  178.549146  51.306404  -154.57349  -30.30812  -5.845849  104.307964  80.052239  -23.130144  -6.259452  19.428457  -8.534696  25.207829  179.45228  62.848623  116.046474  4.891996  -42.509402  -132.644487  56.686572  4.961282  -6.542408  13.777708  19.328623  21.27308  9.549976  14.998901  15.358139  
0.0  93.25843  0.0  83.122774  -47.214524  -158.945548  30.860678  -53.572525  -36.665671  -8.823497  11.568018  26.810961  6.21127  0.8849  4.613491  -11.993298  26.080285  -41.428541  10.996597  13.128282  26.172182  1.168851  1.497009  1.421447  1.993488  2.507989  2.116314  5.682059  6.668905  6.006336  5.68206  6.668905  6.006336  -8.084135  28.548137  11.129038  179.48898  51.482562  -153.882312  -30.247498  -6.039471  104.245658  80.199991  -23.023567  -6.573405  19.284775  -8.93318  24.741144  179.560228  62.871507  115.580849  4.987144  -42.998852  -132.272408  56.626151  5.002431  -6.342882  13.725597  19.321834  21.121073  9.516343  14.988273  15.247085  
0.0  93.25843  0.0  83.024982  -47.202499  -159.317534  26.681912  -56.165536  -34.912749  -5.097556  14.515228  32.924716  7.394058  1.108597  4.935809  -14.613851  24.169818  -42.168735  12.816032  13.452749  26.271275  1.959106  1.505201  1.449967  1.959263  2.503024  2.258607  5.60187  6.646156  6.392262  5.60187  6.646156  6.392262  -8.329586  27.97427  10.397611  179.533128  51.373406  -153.115242  -30.377122  -6.138038  103.77476  80.231465  -23.001325  -6.752047  19.269445  -9.213788  24.017056  179.604926  63.520585  115.348604  5.557878  -43.2158  -131.975617  56.658625  4.986398  -6.345927  13.56599  19.265427  20.763952  9.411618  14.931761  14.988988  
0.0  93.25843  0.0  83.217835  -47.459659  -160.00798  25.189495  -58.286555  -34.810526  -1.935713  17.304885  39.139238  8.478413  1.272915  5.311753  -15.994494  22.735278  -42.372192  13.849281  13.789026  26.588707  2.879074  1.667861  1.356259  1.906815  2.444745  2.420503  5.467495  6.478569  6.82494  5.467495  6.478569  6.824941  -8.145604  27.542191  9.463153  179.335529  50.744736  -152.831361  -30.371587  -6.091637  103.946756  80.201787  -22.924878  -6.932153  19.689415  -9.04333  23.34915  179.356135  64.573904  114.89111  6.338219  -43.274082  -131.649651  56.709813  4.978034  -6.447415  13.584986  19.351707  20.328929  9.435352  14.986798  14.661592  
0.0  93.25843  0.0  83.773351  -47.829354  -160.854701  26.116271  -58.897008  -36.040482  0.61927  18.584574  45.445463  8.7975  1.342435  5.52561  -15.674344  22.120662  -41.995556  13.905614  14.248382  27.048516  3.255345  1.635035  1.18685  1.850487  2.389285  2.514302  5.315737  6.325437  7.071207  5.315737  6.325436  7.071207  -7.743298  27.257196  8.6248  179.373695  50.082054  -152.610801  -30.333424  -5.802356  104.311006  80.087618  -22.891565  -6.915669  20.334747  -8.70864  23.031592  178.921765  65.797444  114.140534  7.197616  -43.340192  -131.31322  56.660625  5.021461  -6.482286  13.846694  19.429102  19.980421  9.637366  15.045363  14.3912  
0.0  93.25843  0.0  83.801028  -47.997505  -160.972792  28.871453  -57.714521  -38.833443  1.877386  18.39021  51.536474  8.502802  1.468351  5.633141  -14.746711  22.176671  -41.460139  13.561442  14.524368  27.569391  3.195886  1.66597  1.084689  1.832207  2.354733  2.501399  5.260437  6.234244  7.030921  5.260437  6.234244  7.030921  -7.750329  27.141907  8.314092  179.726541  49.756067  -152.204023  -30.191594  -5.414138  104.625955  80.030035  -23.010504  -6.748918  20.237422  -8.570823  23.173143  178.602007  66.941962  113.342729  8.138295  -43.620805  -131.072185  56.493136  5.120254  -6.369048  13.917904  19.269278  19.865738  9.701455  14.925008  14.310226  
0.0  93.25843  0.0  83.266104  -48.103356  -160.644987  33.496166  -55.40841  -43.15343  1.59538  18.533499  59.967286  8.046075  1.515085  2.96301  -13.857704  22.465003  -40.824176  13.055357  14.332644  28.08506  2.852333  1.912875  1.020078  1.799887  2.329689  2.450967  5.164436  6.173502  6.887525  5.164436  6.173501  6.887525  -8.080393  26.965503  8.206387  -179.511564  49.604712  -151.550853  -30.079696  -5.182966  104.72041  80.128522  -23.24882  -6.532579  19.922511  -8.630492  23.513018  178.514826  67.84011  112.662167  8.932955  -44.163855  -130.820991  56.201921  5.292237  -6.122515  13.950922  18.965719  19.817042  9.741685  14.697084  14.285273  
